<svg width="171" height="20" viewBox="0 0 171 20" fill="none" xmlns="http://www.w3.org/2000/svg">
<path d="M15.672 2.272L9.36 19H6.84L0.528 2.272H2.856L8.112 16.696L13.368 2.272H15.672ZM19.1948 3.712C18.7788 3.712 18.4268 3.568 18.1388 3.28C17.8508 2.992 17.7068 2.64 17.7068 2.224C17.7068 1.808 17.8508 1.456 18.1388 1.168C18.4268 0.879999 18.7788 0.735999 19.1948 0.735999C19.5948 0.735999 19.9308 0.879999 20.2028 1.168C20.4908 1.456 20.6348 1.808 20.6348 2.224C20.6348 2.64 20.4908 2.992 20.2028 3.28C19.9308 3.568 19.5948 3.712 19.1948 3.712ZM20.2508 5.848V19H18.0668V5.848H20.2508ZM23.157 12.4C23.157 11.04 23.429 9.856 23.973 8.848C24.517 7.824 25.269 7.032 26.229 6.472C27.205 5.912 28.317 5.632 29.565 5.632C31.181 5.632 32.509 6.024 33.549 6.808C34.605 7.592 35.301 8.68 35.637 10.072H33.285C33.061 9.272 32.621 8.64 31.965 8.176C31.325 7.712 30.525 7.48 29.565 7.48C28.317 7.48 27.309 7.912 26.541 8.776C25.773 9.624 25.389 10.832 25.389 12.4C25.389 13.984 25.773 15.208 26.541 16.072C27.309 16.936 28.317 17.368 29.565 17.368C30.525 17.368 31.325 17.144 31.965 16.696C32.605 16.248 33.045 15.608 33.285 14.776H35.637C35.285 16.12 34.581 17.2 33.525 18.016C32.469 18.816 31.149 19.216 29.565 19.216C28.317 19.216 27.205 18.936 26.229 18.376C25.269 17.816 24.517 17.024 23.973 16C23.429 14.976 23.157 13.776 23.157 12.4ZM41.2151 7.648V15.4C41.2151 16.04 41.3511 16.496 41.6231 16.768C41.8951 17.024 42.3671 17.152 43.0391 17.152H44.6471V19H42.6791C41.4631 19 40.5511 18.72 39.9431 18.16C39.3351 17.6 39.0311 16.68 39.0311 15.4V7.648H37.3271V5.848H39.0311V2.536H41.2151V5.848H44.6471V7.648H41.2151ZM53.0293 19.216C51.7973 19.216 50.6773 18.936 49.6693 18.376C48.6773 17.816 47.8933 17.024 47.3173 16C46.7573 14.96 46.4773 13.76 46.4773 12.4C46.4773 11.056 46.7653 9.872 47.3413 8.848C47.9333 7.808 48.7333 7.016 49.7413 6.472C50.7493 5.912 51.8773 5.632 53.1253 5.632C54.3733 5.632 55.5013 5.912 56.5093 6.472C57.5173 7.016 58.3093 7.8 58.8853 8.824C59.4773 9.848 59.7733 11.04 59.7733 12.4C59.7733 13.76 59.4693 14.96 58.8613 16C58.2693 17.024 57.4613 17.816 56.4373 18.376C55.4133 18.936 54.2773 19.216 53.0293 19.216ZM53.0293 17.296C53.8133 17.296 54.5493 17.112 55.2373 16.744C55.9253 16.376 56.4773 15.824 56.8933 15.088C57.3253 14.352 57.5413 13.456 57.5413 12.4C57.5413 11.344 57.3333 10.448 56.9173 9.712C56.5013 8.976 55.9573 8.432 55.2853 8.08C54.6133 7.712 53.8853 7.528 53.1013 7.528C52.3013 7.528 51.5653 7.712 50.8933 8.08C50.2373 8.432 49.7093 8.976 49.3093 9.712C48.9093 10.448 48.7093 11.344 48.7093 12.4C48.7093 13.472 48.9013 14.376 49.2853 15.112C49.6853 15.848 50.2133 16.4 50.8693 16.768C51.5253 17.12 52.2453 17.296 53.0293 17.296ZM64.8289 7.984C65.2129 7.232 65.7569 6.648 66.4609 6.232C67.1809 5.816 68.0529 5.608 69.0769 5.608V7.864H68.5009C66.0529 7.864 64.8289 9.192 64.8289 11.848V19H62.6449V5.848H64.8289V7.984ZM83.3004 19.168C82.1964 19.168 81.2044 18.976 80.3244 18.592C79.4604 18.192 78.7804 17.648 78.2844 16.96C77.7884 16.256 77.5324 15.448 77.5164 14.536H79.8444C79.9244 15.32 80.2444 15.984 80.8044 16.528C81.3804 17.056 82.2124 17.32 83.3004 17.32C84.3404 17.32 85.1564 17.064 85.7484 16.552C86.3564 16.024 86.6604 15.352 86.6604 14.536C86.6604 13.896 86.4844 13.376 86.1324 12.976C85.7804 12.576 85.3404 12.272 84.8124 12.064C84.2844 11.856 83.5724 11.632 82.6764 11.392C81.5724 11.104 80.6844 10.816 80.0124 10.528C79.3564 10.24 78.7884 9.792 78.3084 9.184C77.8444 8.56 77.6124 7.728 77.6124 6.688C77.6124 5.776 77.8444 4.968 78.3084 4.264C78.7724 3.56 79.4204 3.016 80.2524 2.632C81.1004 2.248 82.0684 2.056 83.1564 2.056C84.7244 2.056 86.0044 2.448 86.9964 3.232C88.0044 4.016 88.5724 5.056 88.7004 6.352H86.3004C86.2204 5.712 85.8844 5.152 85.2924 4.672C84.7004 4.176 83.9164 3.928 82.9404 3.928C82.0284 3.928 81.2844 4.168 80.7084 4.648C80.1324 5.112 79.8444 5.768 79.8444 6.616C79.8444 7.224 80.0124 7.72 80.3484 8.104C80.7004 8.488 81.1244 8.784 81.6204 8.992C82.1324 9.184 82.8444 9.408 83.7564 9.664C84.8604 9.968 85.7484 10.272 86.4204 10.576C87.0924 10.864 87.6684 11.32 88.1484 11.944C88.6284 12.552 88.8684 13.384 88.8684 14.44C88.8684 15.256 88.6524 16.024 88.2204 16.744C87.7884 17.464 87.1484 18.048 86.3004 18.496C85.4524 18.944 84.4524 19.168 83.3004 19.168ZM91.2664 12.4C91.2664 11.04 91.5384 9.856 92.0824 8.848C92.6264 7.824 93.3784 7.032 94.3384 6.472C95.3144 5.912 96.4264 5.632 97.6744 5.632C99.2904 5.632 100.618 6.024 101.658 6.808C102.714 7.592 103.41 8.68 103.746 10.072H101.394C101.17 9.272 100.73 8.64 100.074 8.176C99.4344 7.712 98.6344 7.48 97.6744 7.48C96.4264 7.48 95.4184 7.912 94.6504 8.776C93.8824 9.624 93.4984 10.832 93.4984 12.4C93.4984 13.984 93.8824 15.208 94.6504 16.072C95.4184 16.936 96.4264 17.368 97.6744 17.368C98.6344 17.368 99.4344 17.144 100.074 16.696C100.714 16.248 101.154 15.608 101.394 14.776H103.746C103.394 16.12 102.69 17.2 101.634 18.016C100.578 18.816 99.2584 19.216 97.6744 19.216C96.4264 19.216 95.3144 18.936 94.3384 18.376C93.3784 17.816 92.6264 17.024 92.0824 16C91.5384 14.976 91.2664 13.776 91.2664 12.4ZM113.189 5.608C114.181 5.608 115.077 5.824 115.877 6.256C116.677 6.672 117.301 7.304 117.749 8.152C118.213 9 118.445 10.032 118.445 11.248V19H116.285V11.56C116.285 10.248 115.957 9.248 115.301 8.56C114.645 7.856 113.749 7.504 112.613 7.504C111.461 7.504 110.541 7.864 109.853 8.584C109.181 9.304 108.845 10.352 108.845 11.728V19H106.661V1.24H108.845V7.72C109.277 7.048 109.869 6.528 110.621 6.16C111.389 5.792 112.245 5.608 113.189 5.608ZM123.14 3.712C122.724 3.712 122.372 3.568 122.084 3.28C121.796 2.992 121.652 2.64 121.652 2.224C121.652 1.808 121.796 1.456 122.084 1.168C122.372 0.879999 122.724 0.735999 123.14 0.735999C123.54 0.735999 123.876 0.879999 124.148 1.168C124.436 1.456 124.58 1.808 124.58 2.224C124.58 2.64 124.436 2.992 124.148 3.28C123.876 3.568 123.54 3.712 123.14 3.712ZM124.196 5.848V19H122.012V5.848H124.196ZM127.102 12.376C127.102 11.032 127.374 9.856 127.918 8.848C128.462 7.824 129.206 7.032 130.15 6.472C131.11 5.912 132.174 5.632 133.342 5.632C134.494 5.632 135.494 5.88 136.342 6.376C137.19 6.872 137.822 7.496 138.238 8.248V5.848H140.446V19H138.238V16.552C137.806 17.32 137.158 17.96 136.294 18.472C135.446 18.968 134.454 19.216 133.318 19.216C132.15 19.216 131.094 18.928 130.15 18.352C129.206 17.776 128.462 16.968 127.918 15.928C127.374 14.888 127.102 13.704 127.102 12.376ZM138.238 12.4C138.238 11.408 138.038 10.544 137.638 9.808C137.238 9.072 136.694 8.512 136.006 8.128C135.334 7.728 134.59 7.528 133.774 7.528C132.958 7.528 132.214 7.72 131.542 8.104C130.87 8.488 130.334 9.048 129.934 9.784C129.534 10.52 129.334 11.384 129.334 12.376C129.334 13.384 129.534 14.264 129.934 15.016C130.334 15.752 130.87 16.32 131.542 16.72C132.214 17.104 132.958 17.296 133.774 17.296C134.59 17.296 135.334 17.104 136.006 16.72C136.694 16.32 137.238 15.752 137.638 15.016C138.038 14.264 138.238 13.392 138.238 12.4ZM149.033 16.984L153.113 5.848H155.441L150.281 19H147.737L142.577 5.848H144.929L149.033 16.984ZM163.326 19.216C162.094 19.216 160.974 18.936 159.966 18.376C158.974 17.816 158.19 17.024 157.614 16C157.054 14.96 156.774 13.76 156.774 12.4C156.774 11.056 157.062 9.872 157.638 8.848C158.23 7.808 159.03 7.016 160.038 6.472C161.046 5.912 162.174 5.632 163.422 5.632C164.67 5.632 165.798 5.912 166.806 6.472C167.814 7.016 168.606 7.8 169.182 8.824C169.774 9.848 170.07 11.04 170.07 12.4C170.07 13.76 169.766 14.96 169.158 16C168.566 17.024 167.758 17.816 166.734 18.376C165.71 18.936 164.574 19.216 163.326 19.216ZM163.326 17.296C164.11 17.296 164.846 17.112 165.534 16.744C166.222 16.376 166.774 15.824 167.19 15.088C167.622 14.352 167.838 13.456 167.838 12.4C167.838 11.344 167.63 10.448 167.214 9.712C166.798 8.976 166.254 8.432 165.582 8.08C164.91 7.712 164.182 7.528 163.398 7.528C162.598 7.528 161.862 7.712 161.19 8.08C160.534 8.432 160.006 8.976 159.606 9.712C159.206 10.448 159.006 11.344 159.006 12.4C159.006 13.472 159.198 14.376 159.582 15.112C159.982 15.848 160.51 16.4 161.166 16.768C161.822 17.12 162.542 17.296 163.326 17.296Z" fill="black"/>
</svg>
