<svg width="684" height="87" viewBox="0 0 684 87" fill="none" xmlns="http://www.w3.org/2000/svg">
<mask id="path-1-outside-1_1_3" maskUnits="userSpaceOnUse" x="-1" y="-1" width="686" height="89" fill="black">
<rect fill="white" x="-1" y="-1" width="686" height="89"/>
<path d="M59.4 10.588L35.64 85H24.624L0.648 10.588H11.664L30.348 73.876L49.032 10.588H59.4ZM80.2077 28.084V85H70.2717V28.084H80.2077ZM75.1317 0.759997C77.2197 0.759997 78.9117 1.408 80.2077 2.704C81.5037 4 82.1517 5.62 82.1517 7.564C82.1517 9.508 81.5037 11.128 80.2077 12.424C78.9117 13.648 77.2197 14.26 75.1317 14.26C73.1157 14.26 71.4597 13.648 70.1637 12.424C68.8677 11.128 68.2197 9.508 68.2197 7.564C68.2197 5.62 68.8677 4 70.1637 2.704C71.4597 1.408 73.1157 0.759997 75.1317 0.759997ZM121.488 26.788C124.872 26.788 127.968 27.292 130.776 28.3C133.584 29.236 136.284 30.784 138.876 32.944L134.124 39.208C132.108 37.768 130.128 36.724 128.184 36.076C126.312 35.356 124.224 34.996 121.92 34.996C117.312 34.996 113.712 36.832 111.12 40.504C108.6 44.176 107.34 49.612 107.34 56.812C107.34 64.012 108.6 69.34 111.12 72.796C113.64 76.18 117.24 77.872 121.92 77.872C124.152 77.872 126.204 77.548 128.076 76.9C129.948 76.18 132.036 75.064 134.34 73.552L138.876 80.032C133.692 84.208 127.896 86.296 121.488 86.296C113.784 86.296 107.7 83.704 103.236 78.52C98.8442 73.336 96.6482 66.172 96.6482 57.028C96.6482 50.98 97.6562 45.688 99.6722 41.152C101.688 36.616 104.532 33.088 108.204 30.568C111.948 28.048 116.376 26.788 121.488 26.788ZM181.054 82.408C177.31 85 173.062 86.296 168.31 86.296C163.486 86.296 159.706 84.928 156.97 82.192C154.306 79.384 152.974 75.352 152.974 70.096V35.752H143.038V28.084H152.974V15.232L162.91 14.044V28.084H176.41L175.33 35.752H162.91V69.664C162.91 72.616 163.414 74.776 164.422 76.144C165.502 77.44 167.266 78.088 169.714 78.088C171.946 78.088 174.466 77.332 177.274 75.82L181.054 82.408ZM211.152 26.788C219.144 26.788 225.336 29.452 229.728 34.78C234.192 40.108 236.424 47.344 236.424 56.488C236.424 62.392 235.416 67.612 233.4 72.148C231.384 76.612 228.468 80.104 224.652 82.624C220.836 85.072 216.3 86.296 211.044 86.296C203.052 86.296 196.824 83.632 192.36 78.304C187.896 72.976 185.664 65.74 185.664 56.596C185.664 50.692 186.672 45.508 188.688 41.044C190.704 36.508 193.62 33.016 197.436 30.568C201.252 28.048 205.824 26.788 211.152 26.788ZM211.152 34.78C201.288 34.78 196.356 42.052 196.356 56.596C196.356 71.068 201.252 78.304 211.044 78.304C220.836 78.304 225.732 71.032 225.732 56.488C225.732 42.016 220.872 34.78 211.152 34.78ZM277.57 26.788C279.586 26.788 281.458 27.004 283.186 27.436L281.35 37.156C279.622 36.724 277.966 36.508 276.382 36.508C272.854 36.508 270.01 37.804 267.85 40.396C265.69 42.988 263.998 47.02 262.774 52.492V85H252.838V28.084H261.37L262.342 39.64C263.854 35.392 265.906 32.188 268.498 30.028C271.09 27.868 274.114 26.788 277.57 26.788ZM341.98 9.292C346.948 9.292 351.196 10.012 354.724 11.452C358.252 12.82 361.672 14.98 364.984 17.932L359.368 24.196C356.56 21.964 353.788 20.344 351.052 19.336C348.388 18.256 345.508 17.716 342.412 17.716C338.524 17.716 335.32 18.616 332.8 20.416C330.28 22.216 329.02 24.844 329.02 28.3C329.02 30.46 329.452 32.296 330.316 33.808C331.18 35.248 332.764 36.58 335.068 37.804C337.444 39.028 340.864 40.324 345.328 41.692C350.008 43.132 353.896 44.68 356.992 46.336C360.088 47.992 362.572 50.296 364.444 53.248C366.388 56.128 367.36 59.8 367.36 64.264C367.36 68.584 366.28 72.4 364.12 75.712C362.032 79.024 358.972 81.616 354.94 83.488C350.98 85.36 346.264 86.296 340.792 86.296C330.496 86.296 322.072 83.092 315.52 76.684L321.136 70.42C324.16 72.868 327.22 74.74 330.316 76.036C333.412 77.26 336.868 77.872 340.684 77.872C345.292 77.872 349.108 76.756 352.132 74.524C355.156 72.22 356.668 68.908 356.668 64.588C356.668 62.14 356.2 60.124 355.264 58.54C354.328 56.884 352.708 55.408 350.404 54.112C348.172 52.816 344.896 51.52 340.576 50.224C332.944 47.92 327.364 45.148 323.836 41.908C320.308 38.668 318.544 34.276 318.544 28.732C318.544 24.988 319.516 21.64 321.46 18.688C323.476 15.736 326.248 13.432 329.776 11.776C333.376 10.12 337.444 9.292 341.98 9.292ZM402.668 26.788C406.052 26.788 409.148 27.292 411.956 28.3C414.764 29.236 417.464 30.784 420.056 32.944L415.304 39.208C413.288 37.768 411.308 36.724 409.364 36.076C407.492 35.356 405.404 34.996 403.1 34.996C398.492 34.996 394.892 36.832 392.3 40.504C389.78 44.176 388.52 49.612 388.52 56.812C388.52 64.012 389.78 69.34 392.3 72.796C394.82 76.18 398.42 77.872 403.1 77.872C405.332 77.872 407.384 77.548 409.256 76.9C411.128 76.18 413.216 75.064 415.52 73.552L420.056 80.032C414.872 84.208 409.076 86.296 402.668 86.296C394.964 86.296 388.88 83.704 384.416 78.52C380.024 73.336 377.828 66.172 377.828 57.028C377.828 50.98 378.836 45.688 380.852 41.152C382.868 36.616 385.712 33.088 389.384 30.568C393.128 28.048 397.556 26.788 402.668 26.788ZM460.29 26.788C465.474 26.788 469.506 28.336 472.386 31.432C475.338 34.528 476.814 38.776 476.814 44.176V85H466.878V45.58C466.878 41.548 466.086 38.704 464.502 37.048C462.99 35.392 460.758 34.564 457.806 34.564C454.854 34.564 452.226 35.428 449.922 37.156C447.618 38.884 445.458 41.332 443.442 44.5V85H433.506V5.296L443.442 4.216V35.968C447.906 29.848 453.522 26.788 460.29 26.788ZM506.723 28.084V85H496.787V28.084H506.723ZM501.647 0.759997C503.735 0.759997 505.427 1.408 506.723 2.704C508.019 4 508.667 5.62 508.667 7.564C508.667 9.508 508.019 11.128 506.723 12.424C505.427 13.648 503.735 14.26 501.647 14.26C499.631 14.26 497.975 13.648 496.679 12.424C495.383 11.128 494.735 9.508 494.735 7.564C494.735 5.62 495.383 4 496.679 2.704C497.975 1.408 499.631 0.759997 501.647 0.759997ZM565.608 71.716C565.608 74.02 566.004 75.748 566.796 76.9C567.588 77.98 568.776 78.808 570.36 79.384L568.092 86.296C565.14 85.936 562.764 85.108 560.964 83.812C559.164 82.516 557.832 80.5 556.968 77.764C553.152 83.452 547.5 86.296 540.012 86.296C534.396 86.296 529.968 84.712 526.728 81.544C523.488 78.376 521.868 74.236 521.868 69.124C521.868 63.076 524.028 58.432 528.348 55.192C532.74 51.952 538.932 50.332 546.924 50.332H555.672V46.12C555.672 42.088 554.7 39.208 552.756 37.48C550.812 35.752 547.824 34.888 543.792 34.888C539.616 34.888 534.504 35.896 528.456 37.912L525.972 30.676C533.028 28.084 539.58 26.788 545.628 26.788C552.324 26.788 557.328 28.444 560.64 31.756C563.952 34.996 565.608 39.64 565.608 45.688V71.716ZM542.28 78.844C547.968 78.844 552.432 75.892 555.672 69.988V56.92H548.22C537.708 56.92 532.452 60.808 532.452 68.584C532.452 71.968 533.28 74.524 534.936 76.252C536.592 77.98 539.04 78.844 542.28 78.844ZM626.228 28.084L606.896 85H594.908L575.252 28.084H586.052L600.956 76.144L615.752 28.084H626.228ZM658.55 26.788C666.542 26.788 672.734 29.452 677.126 34.78C681.59 40.108 683.822 47.344 683.822 56.488C683.822 62.392 682.814 67.612 680.798 72.148C678.782 76.612 675.866 80.104 672.05 82.624C668.234 85.072 663.698 86.296 658.442 86.296C650.45 86.296 644.222 83.632 639.758 78.304C635.294 72.976 633.062 65.74 633.062 56.596C633.062 50.692 634.07 45.508 636.086 41.044C638.102 36.508 641.018 33.016 644.834 30.568C648.65 28.048 653.222 26.788 658.55 26.788ZM658.55 34.78C648.686 34.78 643.754 42.052 643.754 56.596C643.754 71.068 648.65 78.304 658.442 78.304C668.234 78.304 673.13 71.032 673.13 56.488C673.13 42.016 668.27 34.78 658.55 34.78Z"/>
</mask>
<path d="M59.4 10.588L35.64 85H24.624L0.648 10.588H11.664L30.348 73.876L49.032 10.588H59.4ZM80.2077 28.084V85H70.2717V28.084H80.2077ZM75.1317 0.759997C77.2197 0.759997 78.9117 1.408 80.2077 2.704C81.5037 4 82.1517 5.62 82.1517 7.564C82.1517 9.508 81.5037 11.128 80.2077 12.424C78.9117 13.648 77.2197 14.26 75.1317 14.26C73.1157 14.26 71.4597 13.648 70.1637 12.424C68.8677 11.128 68.2197 9.508 68.2197 7.564C68.2197 5.62 68.8677 4 70.1637 2.704C71.4597 1.408 73.1157 0.759997 75.1317 0.759997ZM121.488 26.788C124.872 26.788 127.968 27.292 130.776 28.3C133.584 29.236 136.284 30.784 138.876 32.944L134.124 39.208C132.108 37.768 130.128 36.724 128.184 36.076C126.312 35.356 124.224 34.996 121.92 34.996C117.312 34.996 113.712 36.832 111.12 40.504C108.6 44.176 107.34 49.612 107.34 56.812C107.34 64.012 108.6 69.34 111.12 72.796C113.64 76.18 117.24 77.872 121.92 77.872C124.152 77.872 126.204 77.548 128.076 76.9C129.948 76.18 132.036 75.064 134.34 73.552L138.876 80.032C133.692 84.208 127.896 86.296 121.488 86.296C113.784 86.296 107.7 83.704 103.236 78.52C98.8442 73.336 96.6482 66.172 96.6482 57.028C96.6482 50.98 97.6562 45.688 99.6722 41.152C101.688 36.616 104.532 33.088 108.204 30.568C111.948 28.048 116.376 26.788 121.488 26.788ZM181.054 82.408C177.31 85 173.062 86.296 168.31 86.296C163.486 86.296 159.706 84.928 156.97 82.192C154.306 79.384 152.974 75.352 152.974 70.096V35.752H143.038V28.084H152.974V15.232L162.91 14.044V28.084H176.41L175.33 35.752H162.91V69.664C162.91 72.616 163.414 74.776 164.422 76.144C165.502 77.44 167.266 78.088 169.714 78.088C171.946 78.088 174.466 77.332 177.274 75.82L181.054 82.408ZM211.152 26.788C219.144 26.788 225.336 29.452 229.728 34.78C234.192 40.108 236.424 47.344 236.424 56.488C236.424 62.392 235.416 67.612 233.4 72.148C231.384 76.612 228.468 80.104 224.652 82.624C220.836 85.072 216.3 86.296 211.044 86.296C203.052 86.296 196.824 83.632 192.36 78.304C187.896 72.976 185.664 65.74 185.664 56.596C185.664 50.692 186.672 45.508 188.688 41.044C190.704 36.508 193.62 33.016 197.436 30.568C201.252 28.048 205.824 26.788 211.152 26.788ZM211.152 34.78C201.288 34.78 196.356 42.052 196.356 56.596C196.356 71.068 201.252 78.304 211.044 78.304C220.836 78.304 225.732 71.032 225.732 56.488C225.732 42.016 220.872 34.78 211.152 34.78ZM277.57 26.788C279.586 26.788 281.458 27.004 283.186 27.436L281.35 37.156C279.622 36.724 277.966 36.508 276.382 36.508C272.854 36.508 270.01 37.804 267.85 40.396C265.69 42.988 263.998 47.02 262.774 52.492V85H252.838V28.084H261.37L262.342 39.64C263.854 35.392 265.906 32.188 268.498 30.028C271.09 27.868 274.114 26.788 277.57 26.788ZM341.98 9.292C346.948 9.292 351.196 10.012 354.724 11.452C358.252 12.82 361.672 14.98 364.984 17.932L359.368 24.196C356.56 21.964 353.788 20.344 351.052 19.336C348.388 18.256 345.508 17.716 342.412 17.716C338.524 17.716 335.32 18.616 332.8 20.416C330.28 22.216 329.02 24.844 329.02 28.3C329.02 30.46 329.452 32.296 330.316 33.808C331.18 35.248 332.764 36.58 335.068 37.804C337.444 39.028 340.864 40.324 345.328 41.692C350.008 43.132 353.896 44.68 356.992 46.336C360.088 47.992 362.572 50.296 364.444 53.248C366.388 56.128 367.36 59.8 367.36 64.264C367.36 68.584 366.28 72.4 364.12 75.712C362.032 79.024 358.972 81.616 354.94 83.488C350.98 85.36 346.264 86.296 340.792 86.296C330.496 86.296 322.072 83.092 315.52 76.684L321.136 70.42C324.16 72.868 327.22 74.74 330.316 76.036C333.412 77.26 336.868 77.872 340.684 77.872C345.292 77.872 349.108 76.756 352.132 74.524C355.156 72.22 356.668 68.908 356.668 64.588C356.668 62.14 356.2 60.124 355.264 58.54C354.328 56.884 352.708 55.408 350.404 54.112C348.172 52.816 344.896 51.52 340.576 50.224C332.944 47.92 327.364 45.148 323.836 41.908C320.308 38.668 318.544 34.276 318.544 28.732C318.544 24.988 319.516 21.64 321.46 18.688C323.476 15.736 326.248 13.432 329.776 11.776C333.376 10.12 337.444 9.292 341.98 9.292ZM402.668 26.788C406.052 26.788 409.148 27.292 411.956 28.3C414.764 29.236 417.464 30.784 420.056 32.944L415.304 39.208C413.288 37.768 411.308 36.724 409.364 36.076C407.492 35.356 405.404 34.996 403.1 34.996C398.492 34.996 394.892 36.832 392.3 40.504C389.78 44.176 388.52 49.612 388.52 56.812C388.52 64.012 389.78 69.34 392.3 72.796C394.82 76.18 398.42 77.872 403.1 77.872C405.332 77.872 407.384 77.548 409.256 76.9C411.128 76.18 413.216 75.064 415.52 73.552L420.056 80.032C414.872 84.208 409.076 86.296 402.668 86.296C394.964 86.296 388.88 83.704 384.416 78.52C380.024 73.336 377.828 66.172 377.828 57.028C377.828 50.98 378.836 45.688 380.852 41.152C382.868 36.616 385.712 33.088 389.384 30.568C393.128 28.048 397.556 26.788 402.668 26.788ZM460.29 26.788C465.474 26.788 469.506 28.336 472.386 31.432C475.338 34.528 476.814 38.776 476.814 44.176V85H466.878V45.58C466.878 41.548 466.086 38.704 464.502 37.048C462.99 35.392 460.758 34.564 457.806 34.564C454.854 34.564 452.226 35.428 449.922 37.156C447.618 38.884 445.458 41.332 443.442 44.5V85H433.506V5.296L443.442 4.216V35.968C447.906 29.848 453.522 26.788 460.29 26.788ZM506.723 28.084V85H496.787V28.084H506.723ZM501.647 0.759997C503.735 0.759997 505.427 1.408 506.723 2.704C508.019 4 508.667 5.62 508.667 7.564C508.667 9.508 508.019 11.128 506.723 12.424C505.427 13.648 503.735 14.26 501.647 14.26C499.631 14.26 497.975 13.648 496.679 12.424C495.383 11.128 494.735 9.508 494.735 7.564C494.735 5.62 495.383 4 496.679 2.704C497.975 1.408 499.631 0.759997 501.647 0.759997ZM565.608 71.716C565.608 74.02 566.004 75.748 566.796 76.9C567.588 77.98 568.776 78.808 570.36 79.384L568.092 86.296C565.14 85.936 562.764 85.108 560.964 83.812C559.164 82.516 557.832 80.5 556.968 77.764C553.152 83.452 547.5 86.296 540.012 86.296C534.396 86.296 529.968 84.712 526.728 81.544C523.488 78.376 521.868 74.236 521.868 69.124C521.868 63.076 524.028 58.432 528.348 55.192C532.74 51.952 538.932 50.332 546.924 50.332H555.672V46.12C555.672 42.088 554.7 39.208 552.756 37.48C550.812 35.752 547.824 34.888 543.792 34.888C539.616 34.888 534.504 35.896 528.456 37.912L525.972 30.676C533.028 28.084 539.58 26.788 545.628 26.788C552.324 26.788 557.328 28.444 560.64 31.756C563.952 34.996 565.608 39.64 565.608 45.688V71.716ZM542.28 78.844C547.968 78.844 552.432 75.892 555.672 69.988V56.92H548.22C537.708 56.92 532.452 60.808 532.452 68.584C532.452 71.968 533.28 74.524 534.936 76.252C536.592 77.98 539.04 78.844 542.28 78.844ZM626.228 28.084L606.896 85H594.908L575.252 28.084H586.052L600.956 76.144L615.752 28.084H626.228ZM658.55 26.788C666.542 26.788 672.734 29.452 677.126 34.78C681.59 40.108 683.822 47.344 683.822 56.488C683.822 62.392 682.814 67.612 680.798 72.148C678.782 76.612 675.866 80.104 672.05 82.624C668.234 85.072 663.698 86.296 658.442 86.296C650.45 86.296 644.222 83.632 639.758 78.304C635.294 72.976 633.062 65.74 633.062 56.596C633.062 50.692 634.07 45.508 636.086 41.044C638.102 36.508 641.018 33.016 644.834 30.568C648.65 28.048 653.222 26.788 658.55 26.788ZM658.55 34.78C648.686 34.78 643.754 42.052 643.754 56.596C643.754 71.068 648.65 78.304 658.442 78.304C668.234 78.304 673.13 71.032 673.13 56.488C673.13 42.016 668.27 34.78 658.55 34.78Z" fill="black"/>
<path d="M59.4 10.588L60.3526 10.8922L60.769 9.588H59.4V10.588ZM35.64 85V86H36.3704L36.5926 85.3042L35.64 85ZM24.624 85L23.6722 85.3067L23.8956 86H24.624V85ZM0.648 10.588V9.588H-0.724833L-0.303813 10.8947L0.648 10.588ZM11.664 10.588L12.6231 10.3049L12.4114 9.588H11.664V10.588ZM30.348 73.876L29.3889 74.1591L30.348 77.4078L31.3071 74.1591L30.348 73.876ZM49.032 10.588V9.588H48.2846L48.0729 10.3049L49.032 10.588ZM58.4474 10.2838L34.6874 84.6958L36.5926 85.3042L60.3526 10.8922L58.4474 10.2838ZM35.64 84H24.624V86H35.64V84ZM25.5758 84.6933L1.59981 10.2813L-0.303813 10.8947L23.6722 85.3067L25.5758 84.6933ZM0.648 11.588H11.664V9.588H0.648V11.588ZM10.7049 10.8711L29.3889 74.1591L31.3071 73.5929L12.6231 10.3049L10.7049 10.8711ZM31.3071 74.1591L49.9911 10.8711L48.0729 10.3049L29.3889 73.5929L31.3071 74.1591ZM49.032 11.588H59.4V9.588H49.032V11.588ZM80.2077 28.084H81.2077V27.084H80.2077V28.084ZM80.2077 85V86H81.2077V85H80.2077ZM70.2717 85H69.2717V86H70.2717V85ZM70.2717 28.084V27.084H69.2717V28.084H70.2717ZM80.2077 2.704L79.5006 3.4111L79.5006 3.4111L80.2077 2.704ZM80.2077 12.424L80.8943 13.151L80.9047 13.1412L80.9148 13.1311L80.2077 12.424ZM70.1637 12.424L69.4566 13.1311L69.4667 13.1412L69.4771 13.151L70.1637 12.424ZM79.2077 28.084V85H81.2077V28.084H79.2077ZM80.2077 84H70.2717V86H80.2077V84ZM71.2717 85V28.084H69.2717V85H71.2717ZM70.2717 29.084H80.2077V27.084H70.2717V29.084ZM75.1317 1.76C76.9947 1.76 78.4188 2.32925 79.5006 3.4111L80.9148 1.99689C79.4047 0.486748 77.4448 -0.240003 75.1317 -0.240003V1.76ZM79.5006 3.4111C80.5968 4.50731 81.1517 5.86736 81.1517 7.564H83.1517C83.1517 5.37264 82.4106 3.49269 80.9148 1.99689L79.5006 3.4111ZM81.1517 7.564C81.1517 9.26063 80.5968 10.6207 79.5006 11.7169L80.9148 13.1311C82.4106 11.6353 83.1517 9.75536 83.1517 7.564H81.1517ZM79.5211 11.697C78.4421 12.716 77.0111 13.26 75.1317 13.26V15.26C77.4283 15.26 79.3813 14.58 80.8943 13.151L79.5211 11.697ZM75.1317 13.26C73.3349 13.26 71.936 12.7223 70.8503 11.697L69.4771 13.151C70.9834 14.5736 72.8965 15.26 75.1317 15.26V13.26ZM70.8708 11.7169C69.7746 10.6207 69.2197 9.26063 69.2197 7.564H67.2197C67.2197 9.75536 67.9608 11.6353 69.4566 13.1311L70.8708 11.7169ZM69.2197 7.564C69.2197 5.86736 69.7746 4.50731 70.8708 3.4111L69.4566 1.99689C67.9608 3.49269 67.2197 5.37264 67.2197 7.564H69.2197ZM70.8708 3.4111C71.9597 2.32228 73.3518 1.76 75.1317 1.76V-0.240003C72.8796 -0.240003 70.9598 0.493719 69.4566 1.99689L70.8708 3.4111ZM130.776 28.3L130.438 29.2412L130.449 29.2451L130.46 29.2487L130.776 28.3ZM138.876 32.944L139.673 33.5484L140.25 32.7873L139.516 32.1758L138.876 32.944ZM134.124 39.208L133.543 40.0217L134.334 40.5865L134.921 39.8124L134.124 39.208ZM128.184 36.076L127.825 37.0093L127.846 37.0175L127.868 37.0247L128.184 36.076ZM111.12 40.504L110.303 39.9273L110.296 39.9382L111.12 40.504ZM111.12 72.796L110.312 73.3852L110.318 73.3933L111.12 72.796ZM128.076 76.9L128.403 77.845L128.419 77.8394L128.435 77.8333L128.076 76.9ZM134.34 73.552L135.159 72.9785L134.603 72.1835L133.792 72.716L134.34 73.552ZM138.876 80.032L139.504 80.8108L140.231 80.2243L139.695 79.4585L138.876 80.032ZM103.236 78.52L102.473 79.1664L102.478 79.1725L103.236 78.52ZM99.6722 41.152L98.7584 40.7459L98.7584 40.7459L99.6722 41.152ZM108.204 30.568L107.646 29.7384L107.638 29.7435L108.204 30.568ZM121.488 27.788C124.772 27.788 127.752 28.277 130.438 29.2412L131.114 27.3588C128.184 26.307 124.972 25.788 121.488 25.788V27.788ZM130.46 29.2487C133.134 30.1401 135.727 31.621 138.236 33.7122L139.516 32.1758C136.842 29.947 134.034 28.3319 131.092 27.3513L130.46 29.2487ZM138.079 32.3396L133.327 38.6036L134.921 39.8124L139.673 33.5484L138.079 32.3396ZM134.705 38.3943C132.625 36.908 130.556 35.8126 128.5 35.1273L127.868 37.0247C129.7 37.6354 131.592 38.628 133.543 40.0217L134.705 38.3943ZM128.543 35.1427C126.541 34.3726 124.329 33.996 121.92 33.996V35.996C124.119 35.996 126.083 36.3394 127.825 37.0093L128.543 35.1427ZM121.92 33.996C116.997 33.996 113.088 35.982 110.303 39.9273L111.937 41.0807C114.336 37.682 117.627 35.996 121.92 35.996V33.996ZM110.296 39.9382C107.611 43.8507 106.34 49.5237 106.34 56.812H108.34C108.34 49.7003 109.59 44.5012 111.945 41.0698L110.296 39.9382ZM106.34 56.812C106.34 64.093 107.608 69.6763 110.312 73.3852L111.928 72.2068C109.593 69.0037 108.34 63.931 108.34 56.812H106.34ZM110.318 73.3933C113.049 77.061 116.964 78.872 121.92 78.872V76.872C117.516 76.872 114.231 75.299 111.922 72.1987L110.318 73.3933ZM121.92 78.872C124.25 78.872 126.414 78.5337 128.403 77.845L127.749 75.955C125.995 76.5623 124.055 76.872 121.92 76.872V78.872ZM128.435 77.8333C130.393 77.0803 132.546 75.9257 134.889 74.388L133.792 72.716C131.527 74.2023 129.503 75.2797 127.717 75.9667L128.435 77.8333ZM133.521 74.1255L138.057 80.6055L139.695 79.4585L135.159 72.9785L133.521 74.1255ZM138.249 79.2532C133.235 83.2921 127.659 85.296 121.488 85.296V87.296C128.134 87.296 134.149 85.1239 139.504 80.8108L138.249 79.2532ZM121.488 85.296C114.034 85.296 108.243 82.8015 103.994 77.8675L102.478 79.1725C107.158 84.6065 113.534 87.296 121.488 87.296V85.296ZM103.999 77.8736C99.8061 72.9244 97.6482 66.0176 97.6482 57.028H95.6482C95.6482 66.3264 97.8823 73.7476 102.473 79.1664L103.999 77.8736ZM97.6482 57.028C97.6482 51.09 98.6378 45.9415 100.586 41.5581L98.7584 40.7459C96.6746 45.4345 95.6482 50.87 95.6482 57.028H97.6482ZM100.586 41.5581C102.536 37.1712 105.267 33.7962 108.77 31.3925L107.638 29.7435C103.797 32.3798 100.841 36.0608 98.7584 40.7459L100.586 41.5581ZM108.763 31.3976C112.32 29.003 116.548 27.788 121.488 27.788V25.788C116.205 25.788 111.576 27.093 107.646 29.7384L108.763 31.3976ZM181.054 82.408L181.624 83.2302L182.379 82.7072L181.922 81.9103L181.054 82.408ZM156.97 82.192L156.245 82.8803L156.254 82.8898L156.263 82.8991L156.97 82.192ZM152.974 35.752H153.974V34.752H152.974V35.752ZM143.038 35.752H142.038V36.752H143.038V35.752ZM143.038 28.084V27.084H142.038V28.084H143.038ZM152.974 28.084V29.084H153.974V28.084H152.974ZM152.974 15.232L152.856 14.2391L151.974 14.3444V15.232H152.974ZM162.91 14.044H163.91V12.9173L162.792 13.0511L162.91 14.044ZM162.91 28.084H161.91V29.084H162.91V28.084ZM176.41 28.084L177.401 28.2235L177.561 27.084H176.41V28.084ZM175.33 35.752V36.752H176.199L176.321 35.8915L175.33 35.752ZM162.91 35.752V34.752H161.91V35.752H162.91ZM164.422 76.144L163.617 76.7372L163.635 76.7612L163.654 76.7842L164.422 76.144ZM177.274 75.82L178.142 75.3223L177.657 74.478L176.8 74.9395L177.274 75.82ZM180.485 81.5858C176.916 84.0568 172.868 85.296 168.31 85.296V87.296C173.256 87.296 177.705 85.9432 181.624 83.2302L180.485 81.5858ZM168.31 85.296C163.682 85.296 160.182 83.9895 157.678 81.4849L156.263 82.8991C159.231 85.8665 163.29 87.296 168.31 87.296V85.296ZM157.696 81.5037C155.263 78.9397 153.974 75.1892 153.974 70.096H151.974C151.974 75.5148 153.349 79.8283 156.245 82.8803L157.696 81.5037ZM153.974 70.096V35.752H151.974V70.096H153.974ZM152.974 34.752H143.038V36.752H152.974V34.752ZM144.038 35.752V28.084H142.038V35.752H144.038ZM143.038 29.084H152.974V27.084H143.038V29.084ZM153.974 28.084V15.232H151.974V28.084H153.974ZM153.093 16.2249L163.029 15.0369L162.792 13.0511L152.856 14.2391L153.093 16.2249ZM161.91 14.044V28.084H163.91V14.044H161.91ZM162.91 29.084H176.41V27.084H162.91V29.084ZM175.42 27.9445L174.34 35.6125L176.321 35.8915L177.401 28.2235L175.42 27.9445ZM175.33 34.752H162.91V36.752H175.33V34.752ZM161.91 35.752V69.664H163.91V35.752H161.91ZM161.91 69.664C161.91 72.6891 162.419 75.1111 163.617 76.7372L165.227 75.5508C164.41 74.4409 163.91 72.5429 163.91 69.664H161.91ZM163.654 76.7842C164.998 78.3964 167.108 79.088 169.714 79.088V77.088C167.425 77.088 166.007 76.4836 165.191 75.5038L163.654 76.7842ZM169.714 79.088C172.168 79.088 174.853 78.2594 177.749 76.7005L176.8 74.9395C174.079 76.4046 171.725 77.088 169.714 77.088V79.088ZM176.407 76.3177L180.187 82.9057L181.922 81.9103L178.142 75.3223L176.407 76.3177ZM229.728 34.78L228.956 35.4161L228.961 35.4222L229.728 34.78ZM233.4 72.148L234.311 72.5596L234.314 72.5541L233.4 72.148ZM224.652 82.624L225.192 83.4658L225.203 83.4585L224.652 82.624ZM192.36 78.304L191.593 78.9462L191.593 78.9462L192.36 78.304ZM188.688 41.044L189.599 41.4556L189.602 41.4501L188.688 41.044ZM197.436 30.568L197.976 31.4098L197.987 31.4025L197.436 30.568ZM211.152 27.788C218.898 27.788 224.785 30.3562 228.956 35.4161L230.499 34.1439C225.886 28.5478 219.39 25.788 211.152 25.788V27.788ZM228.961 35.4222C233.232 40.5201 235.424 47.5039 235.424 56.488H237.424C237.424 47.1841 235.151 39.6959 230.494 34.1378L228.961 35.4222ZM235.424 56.488C235.424 62.2782 234.435 67.3556 232.486 71.7419L234.314 72.5541C236.396 67.8684 237.424 62.5058 237.424 56.488H235.424ZM232.488 71.7364C230.544 76.041 227.748 79.3811 224.101 81.7895L225.203 83.4585C229.188 80.8269 232.223 77.183 234.311 72.5596L232.488 71.7364ZM224.112 81.7823C220.481 84.1113 216.14 85.296 211.044 85.296V87.296C216.46 87.296 221.19 86.0327 225.192 83.4657L224.112 81.7823ZM211.044 85.296C203.298 85.296 197.371 82.7276 193.126 77.6618L191.593 78.9462C196.277 84.5364 202.805 87.296 211.044 87.296V85.296ZM193.126 77.6618C188.855 72.5639 186.664 65.5801 186.664 56.596H184.664C184.664 65.8999 186.936 73.3881 191.593 78.9462L193.126 77.6618ZM186.664 56.596C186.664 50.8053 187.652 45.7665 189.599 41.4556L187.776 40.6324C185.691 45.2495 184.664 50.5787 184.664 56.596H186.664ZM189.602 41.4501C191.546 37.0751 194.34 33.7422 197.976 31.4097L196.896 29.7263C192.9 32.2898 189.862 35.9409 187.774 40.6379L189.602 41.4501ZM197.987 31.4025C201.614 29.0073 205.987 27.788 211.152 27.788V25.788C205.661 25.788 200.89 27.0887 196.885 29.7335L197.987 31.4025ZM211.152 33.78C205.936 33.78 201.904 35.7252 199.227 39.6727C196.597 43.5508 195.356 49.2423 195.356 56.596H197.356C197.356 49.4057 198.581 44.1892 200.882 40.7953C203.137 37.4708 206.504 35.78 211.152 35.78V33.78ZM195.356 56.596C195.356 63.9134 196.588 69.5775 199.2 73.4374C201.858 77.367 205.863 79.304 211.044 79.304V77.304C206.433 77.304 203.093 75.623 200.856 72.3166C198.572 68.9405 197.356 63.7506 197.356 56.596H195.356ZM211.044 79.304C216.227 79.304 220.231 77.3563 222.889 73.4085C225.5 69.531 226.732 63.8408 226.732 56.488H224.732C224.732 63.6792 223.516 68.897 221.23 72.2915C218.992 75.6157 215.653 77.304 211.044 77.304V79.304ZM226.732 56.488C226.732 49.1715 225.509 43.5087 222.917 39.6494C220.277 35.7195 216.3 33.78 211.152 33.78V35.78C215.724 35.78 219.036 37.4585 221.257 40.7646C223.525 44.1413 224.732 49.3325 224.732 56.488H226.732ZM283.186 27.436L284.169 27.6216L284.344 26.6946L283.429 26.4659L283.186 27.436ZM281.35 37.156L281.108 38.1261L282.136 38.3832L282.333 37.3416L281.35 37.156ZM267.85 40.396L268.618 41.0362L268.618 41.0362L267.85 40.396ZM262.774 52.492L261.798 52.2737L261.774 52.3815V52.492H262.774ZM262.774 85V86H263.774V85H262.774ZM252.838 85H251.838V86H252.838V85ZM252.838 28.084V27.084H251.838V28.084H252.838ZM261.37 28.084L262.367 28.0002L262.29 27.084H261.37V28.084ZM262.342 39.64L261.346 39.7238L263.284 39.9753L262.342 39.64ZM268.498 30.028L269.138 30.7962L269.138 30.7962L268.498 30.028ZM277.57 27.788C279.515 27.788 281.305 27.9964 282.944 28.4061L283.429 26.4659C281.612 26.0116 279.657 25.788 277.57 25.788V27.788ZM282.204 27.2504L280.368 36.9704L282.333 37.3416L284.169 27.6216L282.204 27.2504ZM281.593 36.1859C279.795 35.7364 278.057 35.508 276.382 35.508V37.508C277.875 37.508 279.449 37.7116 281.108 38.1261L281.593 36.1859ZM276.382 35.508C272.573 35.508 269.442 36.9241 267.082 39.7558L268.618 41.0362C270.579 38.6839 273.135 37.508 276.382 37.508V35.508ZM267.082 39.7558C264.774 42.5254 263.037 46.7369 261.798 52.2737L263.75 52.7103C264.96 47.3031 266.606 43.4506 268.618 41.0362L267.082 39.7558ZM261.774 52.492V85H263.774V52.492H261.774ZM262.774 84H252.838V86H262.774V84ZM253.838 85V28.084H251.838V85H253.838ZM252.838 29.084H261.37V27.084H252.838V29.084ZM260.374 28.1678L261.346 39.7238L263.339 39.5562L262.367 28.0002L260.374 28.1678ZM263.284 39.9753C264.756 35.8411 266.723 32.8092 269.138 30.7962L267.858 29.2598C265.09 31.5668 262.953 34.9429 261.4 39.3047L263.284 39.9753ZM269.138 30.7962C271.546 28.7899 274.342 27.788 277.57 27.788V25.788C273.886 25.788 270.634 26.9461 267.858 29.2598L269.138 30.7962ZM354.724 11.452L354.346 12.3778L354.355 12.3812L354.363 12.3844L354.724 11.452ZM364.984 17.932L365.729 18.5995L366.398 17.8528L365.65 17.1855L364.984 17.932ZM359.368 24.196L358.746 24.9788L359.484 25.5652L360.113 24.8635L359.368 24.196ZM351.052 19.336L350.677 20.2627L350.692 20.2688L350.707 20.2743L351.052 19.336ZM332.8 20.416L332.219 19.6023L332.219 19.6023L332.8 20.416ZM330.316 33.808L329.448 34.3041L329.453 34.3134L329.459 34.3225L330.316 33.808ZM335.068 37.804L334.599 38.6872L334.61 38.693L335.068 37.804ZM345.328 41.692L345.622 40.7362L345.621 40.7359L345.328 41.692ZM356.992 46.336L356.521 47.2178L356.521 47.2178L356.992 46.336ZM364.444 53.248L363.6 53.7835L363.607 53.7956L363.615 53.8075L364.444 53.248ZM364.12 75.712L363.283 75.1657L363.278 75.1722L363.274 75.1787L364.12 75.712ZM354.94 83.488L354.519 82.581L354.513 82.5839L354.94 83.488ZM315.52 76.684L314.776 76.0165L314.137 76.7294L314.821 77.3989L315.52 76.684ZM321.136 70.42L321.766 69.6428L321.026 69.0445L320.392 69.7525L321.136 70.42ZM330.316 76.036L329.93 76.9584L329.939 76.9623L329.949 76.966L330.316 76.036ZM352.132 74.524L352.726 75.3286L352.732 75.324L352.738 75.3194L352.132 74.524ZM355.264 58.54L354.394 59.0321L354.398 59.0404L354.403 59.0487L355.264 58.54ZM350.404 54.112L349.902 54.9769L349.914 54.9836L350.404 54.112ZM340.576 50.224L340.287 51.1813L340.289 51.1818L340.576 50.224ZM321.46 18.688L320.635 18.124L320.63 18.131L320.625 18.138L321.46 18.688ZM329.776 11.776L329.358 10.8675L329.351 10.8708L329.776 11.776ZM341.98 10.292C346.856 10.292 350.969 10.9992 354.346 12.3778L355.102 10.5261C351.424 9.02478 347.04 8.292 341.98 8.292V10.292ZM354.363 12.3844C357.762 13.7023 361.081 15.7927 364.319 18.6785L365.65 17.1855C362.263 14.1673 358.743 11.9377 355.086 10.5196L354.363 12.3844ZM364.24 17.2644L358.624 23.5285L360.113 24.8635L365.729 18.5995L364.24 17.2644ZM359.991 23.4132C357.118 21.1296 354.254 19.4498 351.398 18.3977L350.707 20.2743C353.323 21.2382 356.003 22.7984 358.746 24.9788L359.991 23.4132ZM351.428 18.4093C348.636 17.2773 345.627 16.716 342.412 16.716V18.716C345.39 18.716 348.141 19.2347 350.677 20.2627L351.428 18.4093ZM342.412 16.716C338.37 16.716 334.948 17.6533 332.219 19.6023L333.382 21.2297C335.693 19.5787 338.679 18.716 342.412 18.716V16.716ZM332.219 19.6023C329.403 21.6139 328.02 24.5645 328.02 28.3H330.02C330.02 25.1235 331.158 22.8181 333.382 21.2297L332.219 19.6023ZM328.02 28.3C328.02 30.5926 328.479 32.6088 329.448 34.3041L331.185 33.3119C330.425 31.9832 330.02 30.3274 330.02 28.3H328.02ZM329.459 34.3225C330.455 35.982 332.216 37.4211 334.599 38.6871L335.537 36.9209C333.313 35.7389 331.906 34.514 331.174 33.2935L329.459 34.3225ZM334.61 38.693C337.064 39.9571 340.55 41.2735 345.035 42.6481L345.621 40.7359C341.179 39.3745 337.824 38.0989 335.526 36.915L334.61 38.693ZM345.034 42.6478C349.675 44.0757 353.499 45.6013 356.521 47.2178L357.464 45.4542C354.294 43.7587 350.342 42.1883 345.622 40.7362L345.034 42.6478ZM356.521 47.2178C359.465 48.7928 361.821 50.9779 363.6 53.7835L365.289 52.7125C363.324 49.6141 360.711 47.1912 357.464 45.4542L356.521 47.2178ZM363.615 53.8075C365.42 56.4809 366.36 59.943 366.36 64.264H368.36C368.36 59.657 367.357 55.7751 365.273 52.6885L363.615 53.8075ZM366.36 64.264C366.36 68.4087 365.327 72.0312 363.283 75.1657L364.958 76.2583C367.234 72.7688 368.36 68.7593 368.36 64.264H366.36ZM363.274 75.1787C361.302 78.3065 358.401 80.7788 354.519 82.581L355.361 84.395C359.544 82.4532 362.762 79.7415 364.966 76.2453L363.274 75.1787ZM354.513 82.5839C350.716 84.379 346.152 85.296 340.792 85.296V87.296C346.376 87.296 351.245 86.341 355.368 84.3921L354.513 82.5839ZM340.792 85.296C330.723 85.296 322.561 82.1712 316.22 75.9691L314.821 77.3989C321.584 84.0128 330.27 87.296 340.792 87.296V85.296ZM316.265 77.3515L321.881 71.0875L320.392 69.7525L314.776 76.0165L316.265 77.3515ZM320.507 71.1972C323.593 73.6957 326.734 75.6205 329.93 76.9584L330.702 75.1136C327.707 73.8595 324.727 72.0403 321.766 69.6428L320.507 71.1972ZM329.949 76.966C333.178 78.2425 336.761 78.872 340.684 78.872V76.872C336.976 76.872 333.647 76.2775 330.684 75.106L329.949 76.966ZM340.684 78.872C345.457 78.872 349.494 77.7139 352.726 75.3286L351.538 73.7194C348.722 75.7981 345.128 76.872 340.684 76.872V78.872ZM352.738 75.3194C356.047 72.7987 357.668 69.1716 357.668 64.588H355.668C355.668 68.6444 354.266 71.6413 351.526 73.7286L352.738 75.3194ZM357.668 64.588C357.668 62.0184 357.178 59.8122 356.125 58.0313L354.403 59.0487C355.223 60.4358 355.668 62.2616 355.668 64.588H357.668ZM356.135 58.0479C355.081 56.1828 353.298 54.5925 350.895 53.2404L349.914 54.9836C352.118 56.2235 353.576 57.5852 354.394 59.0321L356.135 58.0479ZM350.906 53.2472C348.575 51.8932 345.212 50.5706 340.864 49.2662L340.289 51.1818C344.581 52.4694 347.77 53.7388 349.902 54.9768L350.906 53.2472ZM340.865 49.2667C333.294 46.9809 327.88 44.2635 324.513 41.1715L323.16 42.6445C326.849 46.0325 332.595 48.8591 340.287 51.1813L340.865 49.2667ZM324.513 41.1715C321.224 38.1513 319.544 34.0444 319.544 28.732H317.544C317.544 34.5076 319.393 39.1847 323.16 42.6445L324.513 41.1715ZM319.544 28.732C319.544 25.1713 320.466 22.0168 322.295 19.238L320.625 18.138C318.567 21.2632 317.544 24.8047 317.544 28.732H319.544ZM322.286 19.252C324.192 16.4606 326.82 14.2684 330.201 12.6812L329.351 10.8708C325.677 12.5956 322.76 15.0114 320.635 18.124L322.286 19.252ZM330.194 12.6845C333.645 11.0969 337.568 10.292 341.98 10.292V8.292C337.321 8.292 333.107 9.14307 329.358 10.8675L330.194 12.6845ZM411.956 28.3L411.618 29.2412L411.629 29.2451L411.64 29.2487L411.956 28.3ZM420.056 32.944L420.853 33.5484L421.43 32.7873L420.696 32.1758L420.056 32.944ZM415.304 39.208L414.723 40.0217L415.513 40.5865L416.101 39.8124L415.304 39.208ZM409.364 36.076L409.005 37.0093L409.026 37.0175L409.048 37.0247L409.364 36.076ZM392.3 40.504L391.483 39.9273L391.475 39.9382L392.3 40.504ZM392.3 72.796L391.492 73.3852L391.498 73.3933L392.3 72.796ZM409.256 76.9L409.583 77.845L409.599 77.8394L409.615 77.8333L409.256 76.9ZM415.52 73.552L416.339 72.9785L415.783 72.1835L414.971 72.716L415.52 73.552ZM420.056 80.032L420.683 80.8108L421.411 80.2243L420.875 79.4585L420.056 80.032ZM384.416 78.52L383.653 79.1664L383.658 79.1725L384.416 78.52ZM380.852 41.152L379.938 40.7459L379.938 40.7459L380.852 41.152ZM389.384 30.568L388.825 29.7384L388.818 29.7435L389.384 30.568ZM402.668 27.788C405.952 27.788 408.932 28.277 411.618 29.2412L412.294 27.3588C409.364 26.307 406.152 25.788 402.668 25.788V27.788ZM411.64 29.2487C414.314 30.1401 416.906 31.621 419.416 33.7122L420.696 32.1758C418.022 29.947 415.214 28.3319 412.272 27.3513L411.64 29.2487ZM419.259 32.3396L414.507 38.6036L416.101 39.8124L420.853 33.5484L419.259 32.3396ZM415.885 38.3943C413.804 36.908 411.736 35.8126 409.68 35.1273L409.048 37.0247C410.88 37.6354 412.771 38.628 414.723 40.0217L415.885 38.3943ZM409.723 35.1427C407.721 34.3726 405.509 33.996 403.1 33.996V35.996C405.299 35.996 407.263 36.3394 409.005 37.0093L409.723 35.1427ZM403.1 33.996C398.177 33.996 394.268 35.982 391.483 39.9273L393.117 41.0807C395.516 37.682 398.807 35.996 403.1 35.996V33.996ZM391.475 39.9382C388.79 43.8507 387.52 49.5237 387.52 56.812H389.52C389.52 49.7003 390.77 44.5012 393.124 41.0698L391.475 39.9382ZM387.52 56.812C387.52 64.093 388.787 69.6763 391.492 73.3852L393.108 72.2068C390.772 69.0037 389.52 63.931 389.52 56.812H387.52ZM391.498 73.3933C394.229 77.061 398.144 78.872 403.1 78.872V76.872C398.696 76.872 395.411 75.299 393.102 72.1987L391.498 73.3933ZM403.1 78.872C405.429 78.872 407.593 78.5337 409.583 77.845L408.929 75.955C407.174 76.5623 405.234 76.872 403.1 76.872V78.872ZM409.615 77.8333C411.573 77.0803 413.725 75.9257 416.069 74.388L414.971 72.716C412.706 74.2023 410.683 75.2797 408.897 75.9667L409.615 77.8333ZM414.701 74.1255L419.237 80.6055L420.875 79.4585L416.339 72.9785L414.701 74.1255ZM419.429 79.2532C414.415 83.2921 408.838 85.296 402.668 85.296V87.296C409.314 87.296 415.329 85.1239 420.683 80.8108L419.429 79.2532ZM402.668 85.296C395.214 85.296 389.422 82.8015 385.174 77.8675L383.658 79.1725C388.337 84.6065 394.714 87.296 402.668 87.296V85.296ZM385.179 77.8736C380.986 72.9244 378.828 66.0176 378.828 57.028H376.828C376.828 66.3264 379.062 73.7476 383.653 79.1664L385.179 77.8736ZM378.828 57.028C378.828 51.09 379.818 45.9415 381.766 41.5581L379.938 40.7459C377.854 45.4345 376.828 50.87 376.828 57.028H378.828ZM381.766 41.5581C383.715 37.1712 386.447 33.7962 389.95 31.3925L388.818 29.7435C384.977 32.3798 382.02 36.0608 379.938 40.7459L381.766 41.5581ZM389.942 31.3976C393.5 29.003 397.728 27.788 402.668 27.788V25.788C397.384 25.788 392.756 27.093 388.825 29.7384L389.942 31.3976ZM472.386 31.432L471.654 32.1132L471.662 32.1221L472.386 31.432ZM476.814 85V86H477.814V85H476.814ZM466.878 85H465.878V86H466.878V85ZM464.502 37.048L463.764 37.7223L463.771 37.7308L463.779 37.7392L464.502 37.048ZM443.442 44.5L442.598 43.9631L442.442 44.2088V44.5H443.442ZM443.442 85V86H444.442V85H443.442ZM433.506 85H432.506V86H433.506V85ZM433.506 5.296L433.398 4.30185L432.506 4.3988V5.296H433.506ZM443.442 4.216H444.442V3.10141L443.334 3.22185L443.442 4.216ZM443.442 35.968H442.442V39.0359L444.25 36.5573L443.442 35.968ZM460.29 27.788C465.264 27.788 469.005 29.2651 471.654 32.1131L473.118 30.7509C470.008 27.4069 465.684 25.788 460.29 25.788V27.788ZM471.662 32.1221C474.394 34.9867 475.814 38.9625 475.814 44.176H477.814C477.814 38.5895 476.282 34.0693 473.11 30.7419L471.662 32.1221ZM475.814 44.176V85H477.814V44.176H475.814ZM476.814 84H466.878V86H476.814V84ZM467.878 85V45.58H465.878V85H467.878ZM467.878 45.58C467.878 41.4698 467.081 38.2972 465.225 36.3568L463.779 37.7392C465.091 39.1108 465.878 41.6262 465.878 45.58H467.878ZM465.241 36.3737C463.484 34.4499 460.945 33.564 457.806 33.564V35.564C460.571 35.564 462.496 36.3341 463.764 37.7223L465.241 36.3737ZM457.806 33.564C454.644 33.564 451.804 34.4947 449.322 36.356L450.522 37.956C452.648 36.3613 455.065 35.564 457.806 35.564V33.564ZM449.322 36.356C446.897 38.1746 444.66 40.7227 442.598 43.9631L444.286 45.0369C446.256 41.9413 448.339 39.5934 450.522 37.956L449.322 36.356ZM442.442 44.5V85H444.442V44.5H442.442ZM443.442 84H433.506V86H443.442V84ZM434.506 85V5.296H432.506V85H434.506ZM433.614 6.29014L443.55 5.21014L443.334 3.22185L433.398 4.30185L433.614 6.29014ZM442.442 4.216V35.968H444.442V4.216H442.442ZM444.25 36.5573C448.552 30.6599 453.883 27.788 460.29 27.788V25.788C453.161 25.788 447.261 29.0361 442.634 35.3787L444.25 36.5573ZM506.723 28.084H507.723V27.084H506.723V28.084ZM506.723 85V86H507.723V85H506.723ZM496.787 85H495.787V86H496.787V85ZM496.787 28.084V27.084H495.787V28.084H496.787ZM506.723 2.704L506.016 3.4111L506.016 3.4111L506.723 2.704ZM506.723 12.424L507.41 13.151L507.42 13.1412L507.43 13.1311L506.723 12.424ZM496.679 12.424L495.972 13.1311L495.982 13.1412L495.993 13.151L496.679 12.424ZM505.723 28.084V85H507.723V28.084H505.723ZM506.723 84H496.787V86H506.723V84ZM497.787 85V28.084H495.787V85H497.787ZM496.787 29.084H506.723V27.084H496.787V29.084ZM501.647 1.76C503.51 1.76 504.934 2.32925 506.016 3.4111L507.43 1.99689C505.92 0.486748 503.96 -0.240003 501.647 -0.240003V1.76ZM506.016 3.4111C507.112 4.50731 507.667 5.86736 507.667 7.564H509.667C509.667 5.37264 508.926 3.49269 507.43 1.99689L506.016 3.4111ZM507.667 7.564C507.667 9.26063 507.112 10.6207 506.016 11.7169L507.43 13.1311C508.926 11.6353 509.667 9.75536 509.667 7.564H507.667ZM506.037 11.697C504.958 12.716 503.527 13.26 501.647 13.26V15.26C503.944 15.26 505.897 14.58 507.41 13.151L506.037 11.697ZM501.647 13.26C499.851 13.26 498.452 12.7223 497.366 11.697L495.993 13.151C497.499 14.5736 499.412 15.26 501.647 15.26V13.26ZM497.386 11.7169C496.29 10.6207 495.735 9.26063 495.735 7.564H493.735C493.735 9.75536 494.476 11.6353 495.972 13.1311L497.386 11.7169ZM495.735 7.564C495.735 5.86736 496.29 4.50731 497.386 3.4111L495.972 1.99689C494.476 3.49269 493.735 5.37264 493.735 7.564H495.735ZM497.386 3.4111C498.475 2.32228 499.867 1.76 501.647 1.76V-0.240003C499.395 -0.240003 497.475 0.493719 495.972 1.99689L497.386 3.4111ZM566.796 76.9L565.972 77.4665L565.98 77.4791L565.989 77.4914L566.796 76.9ZM570.36 79.384L571.31 79.6958L571.612 78.7753L570.702 78.4442L570.36 79.384ZM568.092 86.296L567.971 87.2886L568.786 87.3881L569.042 86.6078L568.092 86.296ZM560.964 83.812L560.38 84.6235L560.38 84.6235L560.964 83.812ZM556.968 77.764L557.921 77.4629L557.295 75.4807L556.137 77.2069L556.968 77.764ZM526.728 81.544L526.029 82.259L526.029 82.259L526.728 81.544ZM528.348 55.192L527.754 54.3872L527.748 54.392L528.348 55.192ZM555.672 50.332V51.332H556.672V50.332H555.672ZM552.756 37.48L553.42 36.7326L553.42 36.7326L552.756 37.48ZM528.456 37.912L527.51 38.2367L527.832 39.1741L528.772 38.8607L528.456 37.912ZM525.972 30.676L525.627 29.7373L524.708 30.0749L525.026 31.0007L525.972 30.676ZM560.64 31.756L559.933 32.4631L559.941 32.4708L560.64 31.756ZM555.672 69.988L556.548 70.4691L556.672 70.2444V69.988H555.672ZM555.672 56.92H556.672V55.92H555.672V56.92ZM534.936 76.252L534.214 76.9439L534.214 76.9439L534.936 76.252ZM564.608 71.716C564.608 74.1035 565.013 76.0713 565.972 77.4665L567.62 76.3335C566.995 75.4247 566.608 73.9365 566.608 71.716H564.608ZM565.989 77.4914C566.925 78.7677 568.296 79.6977 570.018 80.3238L570.702 78.4442C569.255 77.9183 568.25 77.1923 567.602 76.3086L565.989 77.4914ZM569.41 79.0722L567.142 85.9842L569.042 86.6078L571.31 79.6958L569.41 79.0722ZM568.213 85.3034C565.373 84.9571 563.173 84.1702 561.548 83.0005L560.38 84.6235C562.355 86.0458 564.906 86.9149 567.971 87.2886L568.213 85.3034ZM561.548 83.0005C559.968 81.863 558.74 80.0539 557.921 77.4629L556.014 78.0651C556.924 80.9461 558.359 83.169 560.38 84.6235L561.548 83.0005ZM556.137 77.2069C552.527 82.5889 547.203 85.296 540.012 85.296V87.296C547.796 87.296 553.777 84.3151 557.798 78.3211L556.137 77.2069ZM540.012 85.296C534.591 85.296 530.438 83.7728 527.427 80.829L526.029 82.259C529.498 85.6512 534.201 87.296 540.012 87.296V85.296ZM527.427 80.829C524.405 77.874 522.868 74.0046 522.868 69.124H520.868C520.868 74.4674 522.571 78.878 526.029 82.259L527.427 80.829ZM522.868 69.124C522.868 63.3474 524.912 59.0186 528.948 55.992L527.748 54.392C523.143 57.8454 520.868 62.8046 520.868 69.124H522.868ZM528.941 55.9967C533.098 52.9303 539.05 51.332 546.924 51.332V49.332C538.813 49.332 532.381 50.9737 527.754 54.3873L528.941 55.9967ZM546.924 51.332H555.672V49.332H546.924V51.332ZM556.672 50.332V46.12H554.672V50.332H556.672ZM556.672 46.12C556.672 41.9585 555.672 38.7339 553.42 36.7326L552.091 38.2274C553.728 39.6821 554.672 42.2175 554.672 46.12H556.672ZM553.42 36.7326C551.215 34.7727 547.94 33.888 543.792 33.888V35.888C547.708 35.888 550.408 36.7312 552.091 38.2274L553.42 36.7326ZM543.792 33.888C539.467 33.888 534.242 34.9293 528.14 36.9633L528.772 38.8607C534.766 36.8627 539.764 35.888 543.792 35.888V33.888ZM529.402 37.5873L526.918 30.3513L525.026 31.0007L527.51 38.2367L529.402 37.5873ZM526.317 31.6147C533.288 29.0538 539.722 27.788 545.628 27.788V25.788C539.437 25.788 532.768 27.1142 525.627 29.7373L526.317 31.6147ZM545.628 27.788C552.173 27.788 556.876 29.4066 559.933 32.4631L561.347 31.0489C557.779 27.4814 552.474 25.788 545.628 25.788V27.788ZM559.941 32.4708C563.006 35.4702 564.608 39.8232 564.608 45.688H566.608C566.608 39.4568 564.897 34.5218 561.339 31.0412L559.941 32.4708ZM564.608 45.688V71.716H566.608V45.688H564.608ZM542.28 79.844C548.407 79.844 553.172 76.6226 556.548 70.4691L554.795 69.5069C551.692 75.1614 547.529 77.844 542.28 77.844V79.844ZM556.672 69.988V56.92H554.672V69.988H556.672ZM555.672 55.92H548.22V57.92H555.672V55.92ZM548.22 55.92C542.87 55.92 538.676 56.9042 535.799 59.0321C532.866 61.2016 531.452 64.4468 531.452 68.584H533.452C533.452 64.9452 534.665 62.3584 536.989 60.6399C539.368 58.8798 543.058 57.92 548.22 57.92V55.92ZM531.452 68.584C531.452 72.1186 532.317 74.9645 534.214 76.9439L535.658 75.5601C534.243 74.0835 533.452 71.8174 533.452 68.584H531.452ZM534.214 76.9439C536.118 78.9307 538.867 79.844 542.28 79.844V77.844C539.213 77.844 537.066 77.0293 535.658 75.5601L534.214 76.9439ZM626.228 28.084L627.175 28.4056L627.624 27.084H626.228V28.084ZM606.896 85V86H607.612L607.843 85.3216L606.896 85ZM594.908 85L593.963 85.3264L594.195 86H594.908V85ZM575.252 28.084V27.084H573.849L574.307 28.4104L575.252 28.084ZM586.052 28.084L587.007 27.7878L586.789 27.084H586.052V28.084ZM600.956 76.144L600.001 76.4402L600.959 79.5313L601.912 76.4382L600.956 76.144ZM615.752 28.084V27.084H615.013L614.796 27.7898L615.752 28.084ZM625.281 27.7624L605.949 84.6784L607.843 85.3216L627.175 28.4056L625.281 27.7624ZM606.896 84H594.908V86H606.896V84ZM595.853 84.6736L576.197 27.7576L574.307 28.4104L593.963 85.3264L595.853 84.6736ZM575.252 29.084H586.052V27.084H575.252V29.084ZM585.097 28.3802L600.001 76.4402L601.911 75.8478L587.007 27.7878L585.097 28.3802ZM601.912 76.4382L616.708 28.3782L614.796 27.7898L600 75.8498L601.912 76.4382ZM615.752 29.084H626.228V27.084H615.752V29.084ZM677.126 34.78L676.355 35.4161L676.36 35.4222L677.126 34.78ZM680.798 72.148L681.71 72.5596L681.712 72.5541L680.798 72.148ZM672.05 82.624L672.59 83.4658L672.601 83.4585L672.05 82.624ZM639.758 78.304L638.992 78.9462L638.992 78.9462L639.758 78.304ZM636.086 41.044L636.998 41.4556L637 41.4501L636.086 41.044ZM644.834 30.568L645.374 31.4098L645.385 31.4025L644.834 30.568ZM658.55 27.788C666.296 27.788 672.184 30.3562 676.355 35.4161L677.898 34.1439C673.285 28.5478 666.788 25.788 658.55 25.788V27.788ZM676.36 35.4222C680.631 40.5201 682.822 47.5039 682.822 56.488H684.822C684.822 47.1841 682.55 39.6959 677.893 34.1378L676.36 35.4222ZM682.822 56.488C682.822 62.2782 681.834 67.3556 679.884 71.7419L681.712 72.5541C683.795 67.8684 684.822 62.5058 684.822 56.488H682.822ZM679.887 71.7364C677.943 76.041 675.146 79.3811 671.499 81.7895L672.601 83.4585C676.586 80.8269 679.622 77.183 681.71 72.5596L679.887 71.7364ZM671.51 81.7823C667.88 84.1113 663.538 85.296 658.442 85.296V87.296C663.859 87.296 668.589 86.0327 672.59 83.4657L671.51 81.7823ZM658.442 85.296C650.697 85.296 644.769 82.7276 640.525 77.6618L638.992 78.9462C643.675 84.5364 650.204 87.296 658.442 87.296V85.296ZM640.525 77.6618C636.254 72.5639 634.062 65.5801 634.062 56.596H632.062C632.062 65.8999 634.335 73.3881 638.992 78.9462L640.525 77.6618ZM634.062 56.596C634.062 50.8053 635.051 45.7665 636.998 41.4556L635.175 40.6324C633.09 45.2495 632.062 50.5787 632.062 56.596H634.062ZM637 41.4501C638.945 37.0751 641.738 33.7422 645.374 31.4097L644.294 29.7263C640.298 32.2898 637.26 35.9409 635.172 40.6379L637 41.4501ZM645.385 31.4025C649.012 29.0073 653.385 27.788 658.55 27.788V25.788C653.059 25.788 648.288 27.0887 644.283 29.7335L645.385 31.4025ZM658.55 33.78C653.334 33.78 649.303 35.7252 646.626 39.6727C643.995 43.5508 642.754 49.2423 642.754 56.596H644.754C644.754 49.4057 645.979 44.1892 648.281 40.7953C650.536 37.4708 653.902 35.78 658.55 35.78V33.78ZM642.754 56.596C642.754 63.9134 643.986 69.5775 646.598 73.4374C649.257 77.367 653.261 79.304 658.442 79.304V77.304C653.831 77.304 650.492 75.623 648.254 72.3166C645.97 68.9405 644.754 63.7506 644.754 56.596H642.754ZM658.442 79.304C663.625 79.304 667.63 77.3563 670.288 73.4085C672.898 69.531 674.13 63.8408 674.13 56.488H672.13C672.13 63.6792 670.914 68.897 668.629 72.2915C666.391 75.6157 663.051 77.304 658.442 77.304V79.304ZM674.13 56.488C674.13 49.1715 672.907 43.5087 670.315 39.6494C667.676 35.7195 663.698 33.78 658.55 33.78V35.78C663.122 35.78 666.435 37.4585 668.655 40.7646C670.923 44.1413 672.13 49.3325 672.13 56.488H674.13Z" fill="black" mask="url(#path-1-outside-1_1_3)"/>
</svg>
